PathFileType	4	(X/Y/Z)	D:\TRACE\spotREDO_2-26-24\spot_baseline_2-v60.trc
DataRate	CameraRate	NumFrames	NumMarkers	Units	OrigDataRate	OrigDataStartFrame	OrigNumFrames
100.00	100.00	      21	9	mm	100.00	2626	      7000
Frame#	Time	front left toe			Front right toe			aft left toe			aft right toe			Arm			FL body			FR body			AL Body			AR Body			
		X1	Y1	Z1	X2	Y2	Z2	X3	Y3	Z3	X4	Y4	Z4	X5	Y5	Z5	X6	Y6	Z6	X7	Y7	Z7	X8	Y8	Z8	X9	Y9	Z9	

2626	26.250	-177.18314	21.48959	-64.13387	294.48074	22.76854	-90.95760	-145.08871	22.87639	376.93051	319.62915	25.85431	348.27472	58.49676	809.78394	-286.89816	-24.86105	551.25580	-257.45416	130.80745	554.82843	-270.28793	37.57265	559.04205	623.55896	187.19182	558.49493	614.58783	
2627	26.260	-177.14600	21.50270	-64.07009	294.52884	22.81011	-90.92932	-145.08607	22.91789	377.01352	319.64685	25.87886	348.35257	58.95487	809.81189	-286.30212	-24.81014	551.32544	-256.69006	131.27068	554.79663	-269.64627	38.08322	559.07281	624.35052	187.29182	558.31427	615.08575	
2628	26.270	-177.12132	21.54854	-64.01252	294.56622	22.81916	-90.87495	-145.07323	22.93916	377.05899	319.59113	25.91471	348.49100	59.83839	809.68164	-285.35797	-24.09749	551.16241	-255.68956	131.63063	554.68549	-268.69669	38.34880	559.13708	625.13696	187.49631	558.43890	615.82690	
2629	26.280	-177.02264	21.52752	-63.97607	294.54129	22.80755	-90.83562	-145.03841	22.99382	377.05380	319.63513	25.93423	348.42932	60.18530	809.65906	-284.77579	-23.84356	551.17139	-255.20677	131.88438	554.65521	-268.08279	38.52048	558.62347	624.89825	187.98590	558.38934	616.47406	
2630	26.290	-176.98531	21.54404	-63.91090	294.81296	22.74134	-90.54195	-144.98187	22.92442	377.15109	319.73022	25.83429	348.44305	60.57499	809.75391	-284.09760	-23.60625	551.33789	-254.32703	132.30908	554.59906	-267.35342	38.78739	558.69830	625.47089	188.44398	558.30389	617.21765	
2631	26.300	-176.90717	21.61110	-63.93744	294.58496	22.70331	-90.59448	-144.95334	22.99171	377.21304	319.81625	25.74066	348.55389	60.89341	809.76251	-283.20227	-23.12064	551.27979	-253.69145	132.64539	554.64624	-266.48495	39.17527	558.93329	626.25360	188.68488	558.24701	617.98364	
2632	26.310	-176.79681	21.68879	-63.96299	294.80899	22.67177	-90.43463	-144.94557	23.01301	377.22556	319.82730	25.64945	348.63205	61.10107	809.81970	-282.49063	-22.86385	551.29089	-252.75729	132.94875	554.55878	-265.76971	39.57136	558.89520	627.14966	189.10391	558.39044	618.88934	
2633	26.320	-176.79633	21.79105	-63.98306	294.65048	22.72195	-90.46151	-144.92755	23.12196	377.26038	319.83893	25.66895	348.63528	61.85416	809.73370	-281.64566	-22.48579	551.28198	-252.09126	133.31090	554.52454	-265.14261	40.00564	558.99408	627.90741	189.43504	558.26282	619.41071	
2634	26.330	-176.91794	21.91478	-63.96681	294.60300	22.74356	-90.44263	-144.87917	23.09982	377.29089	319.89005	25.67252	348.66119	62.09155	809.74567	-281.12561	-22.15310	551.32983	-251.33577	133.66522	554.41144	-264.29355	40.31289	559.01691	628.66840	190.05057	558.39209	620.35754	
2635	26.340	-176.97292	21.93784	-63.94476	294.66895	22.76026	-90.36582	-144.86986	23.12486	377.32193	319.83914	25.63980	348.64355	62.74204	809.77344	-280.31201	-22.06418	551.44440	-250.81050	133.99338	554.26636	-263.52225	40.76326	559.09375	629.46478	190.26266	558.35895	621.05518	
2636	26.350	-177.01033	21.95011	-63.89266	294.81137	22.72336	-90.15071	-144.85976	23.13435	377.39444	319.86780	25.64020	348.74243	63.57682	809.69281	-279.58334	-21.41445	551.67230	-250.25043	134.24971	554.29669	-262.70819	41.18893	558.99408	630.11017	190.71854	558.30542	621.74744	
2637	26.360	-176.94908	21.91460	-63.80475	294.63834	22.68681	-90.29347	-144.81354	23.14670	377.49078	319.87286	25.59906	348.73730	63.96054	809.78632	-278.75388	-21.07445	551.60760	-248.83942	134.43057	554.28821	-261.91669	41.58662	558.97198	630.95428	191.13205	558.33643	622.52734	
2638	26.370	-176.88934	21.80600	-63.68761	294.68845	22.71835	-90.24263	-144.76555	23.19770	377.52655	319.94635	25.55769	348.85666	64.29219	809.73676	-277.79944	-21.06127	552.01117	-248.62947	134.83652	554.21887	-261.28226	42.17778	558.81183	631.51685	191.50349	558.29608	623.38501	
2639	26.380	-177.22545	21.89931	-63.62368	294.74594	22.71826	-90.18559	-144.72758	23.19920	377.49271	319.97928	25.49501	348.84698	64.62907	809.72272	-277.10745	-20.29265	551.70911	-247.31152	135.39082	554.34491	-260.41006	42.72572	558.89691	632.30267	191.92801	558.25586	624.23529	
2640	26.390	-177.23216	21.92822	-63.59089	294.73361	22.71780	-90.13479	-144.70168	23.27177	377.54431	320.01642	25.44742	348.95523	64.94723	809.82404	-276.23718	-20.02915	551.70270	-246.51633	135.67665	554.37054	-259.70566	43.22127	559.09442	633.15833	192.17987	558.32843	624.86047	
2641	26.400	-177.24588	21.94286	-63.55507	294.76389	22.70568	-90.09619	-144.67932	23.27717	377.59238	319.96136	25.38520	349.03122	65.29271	809.94446	-275.47751	-19.67022	551.75250	-245.64714	136.05469	554.46344	-258.82938	43.59182	559.55591	634.26410	192.76331	558.29626	625.87067	
2642	26.410	-177.21587	21.92201	-63.51341	294.76892	22.73697	-90.06702	-144.69795	23.30163	377.61322	320.00693	25.45226	349.02451	65.62896	810.00885	-274.88010	-19.48124	552.02057	-244.85580	136.25453	554.50903	-257.91498	44.07136	559.64545	635.06384	193.12393	558.39240	626.54565	
2643	26.420	-177.24568	21.91367	-63.42494	294.76285	22.74790	-90.02325	-144.66992	23.31403	377.68085	320.02527	25.45970	349.17365	66.46512	810.01111	-273.85342	-19.05083	552.13971	-244.14545	136.62497	554.49719	-257.23471	44.03119	559.72253	635.65759	194.55032	558.38251	627.72241	
2644	26.430	-177.22549	21.92183	-63.42540	294.76013	22.74786	-90.04218	-144.66165	23.31600	377.72394	320.09705	25.45780	349.14835	66.81352	810.10419	-273.13400	-18.61426	552.17413	-243.21068	137.39557	554.42712	-256.22873	44.43994	559.71796	636.78156	195.27737	558.24170	628.30640	
2645	26.440	-177.24002	21.91926	-63.43595	294.75299	22.69810	-89.94795	-144.64732	23.31385	377.74899	320.04767	25.41380	349.16486	67.53470	810.28986	-272.13763	-18.47199	552.40240	-242.46451	136.80273	554.58380	-255.61591	44.70065	559.61908	637.48816	194.20361	558.28265	629.00378	
2646	26.450	-177.18636	21.91841	-63.37969	294.81787	22.68521	-89.91855	-144.61470	23.35701	377.79160	320.13681	25.40230	349.18988	67.93695	810.34619	-271.39780	-18.44500	552.88593	-242.21326	137.27193	554.68671	-254.90016	45.22280	559.51685	638.39117	195.61070	558.33649	630.19238	
